<svg width="99" height="147" viewBox="0 0 99 147" fill="none" xmlns="http://www.w3.org/2000/svg">
<path d="M50.2375 54.7948C55.9028 54.7945 61.393 56.7517 65.7726 60.333C70.1521 63.9143 73.15 68.8981 74.2555 74.4351C75.361 79.9721 74.5057 85.7199 71.8352 90.6989C69.1648 95.6779 64.8445 99.5802 59.6104 101.741C54.3764 103.901 48.5525 104.187 43.131 102.548C37.7096 100.909 33.0261 97.4479 29.8785 92.7539C26.731 88.0598 25.3141 82.4234 25.8694 76.805C26.4247 71.1866 28.9177 65.9339 32.9237 61.9419C35.192 59.6689 37.8902 57.8669 40.8621 56.6401C43.8341 55.4133 47.0207 54.7861 50.2375 54.7948V54.7948ZM50.2375 53.2146C45.0796 53.2131 40.037 54.7361 35.7478 57.5907C31.4585 60.4454 28.1151 64.5035 26.1405 69.2518C24.1659 74.0002 23.6488 79.2255 24.6546 84.2667C25.6604 89.308 28.1439 93.9387 31.791 97.5733C35.4381 101.208 40.085 103.683 45.1438 104.686C50.2027 105.688 55.4463 105.173 60.2114 103.206C64.9765 101.238 69.0491 97.9068 71.914 93.6326C74.7789 89.3585 76.3074 84.3337 76.3062 79.1937C76.3043 72.3045 73.5572 65.698 68.6688 60.8264C63.7804 55.9548 57.1509 53.2169 50.2375 53.2146Z" fill="white"/>
<path d="M30.1755 41.0209C31.3671 41.0209 32.5318 41.373 33.5225 42.0327C34.5133 42.6924 35.2854 43.63 35.7414 44.727C36.1974 45.8239 36.3167 47.031 36.0842 48.1956C35.8518 49.3601 35.278 50.4299 34.4355 51.2695C33.5929 52.1091 32.5195 52.6808 31.3508 52.9125C30.1822 53.1441 28.9709 53.0252 27.8701 52.5708C26.7692 52.1164 25.8283 51.347 25.1663 50.3597C24.5044 49.3725 24.151 48.2117 24.151 47.0244C24.153 45.4328 24.7883 43.9069 25.9177 42.7814C27.0471 41.656 28.5783 41.0229 30.1755 41.0209V41.0209ZM30.1755 39.4348C28.6692 39.4351 27.1969 39.8805 25.9446 40.7146C24.6923 41.5487 23.7164 42.7342 23.1402 44.121C22.5639 45.5078 22.4133 47.0338 22.7074 48.5059C23.0014 49.9781 23.7269 51.3303 24.7921 52.3915C25.8573 53.4528 27.2143 54.1755 28.6917 54.4682C30.169 54.7609 31.7003 54.6106 33.0919 54.0361C34.4835 53.4616 35.6729 52.4888 36.5097 51.2408C37.3465 49.9927 37.7932 48.5254 37.7932 47.0244C37.7932 46.0276 37.5961 45.0405 37.2133 44.1196C36.8304 43.1987 36.2693 42.362 35.5619 41.6572C34.8545 40.9524 34.0148 40.3934 33.0906 40.0121C32.1663 39.6308 31.1758 39.4346 30.1755 39.4348V39.4348Z" fill="white"/>
<path d="M45.0922 38.944C45.4715 38.944 45.8422 39.0561 46.1576 39.2661C46.473 39.4761 46.7188 39.7745 46.8639 40.1237C47.0091 40.4729 47.047 40.8571 46.973 41.2278C46.899 41.5985 46.7164 41.939 46.4482 42.2063C46.18 42.4735 45.8383 42.6555 45.4663 42.7293C45.0943 42.803 44.7087 42.7652 44.3583 42.6205C44.0079 42.4759 43.7084 42.231 43.4977 41.9167C43.287 41.6024 43.1745 41.233 43.1745 40.855C43.1745 40.3482 43.3766 39.8621 43.7362 39.5037C44.0958 39.1454 44.5836 38.944 45.0922 38.944V38.944ZM45.0922 37.3564C44.3981 37.3564 43.7196 37.5615 43.1425 37.9458C42.5654 38.3301 42.1156 38.8763 41.85 39.5153C41.5844 40.1543 41.5149 40.8574 41.6503 41.5358C41.7857 42.2142 42.1199 42.8373 42.6107 43.3264C43.1015 43.8155 43.7268 44.1485 44.4076 44.2835C45.0883 44.4184 45.7939 44.3491 46.4352 44.0845C47.0764 43.8198 47.6245 43.3715 48.0101 42.7964C48.3957 42.2213 48.6016 41.5452 48.6016 40.8535C48.6016 39.9261 48.2318 39.0366 47.5737 38.3807C46.9156 37.7249 46.0229 37.3564 45.0922 37.3564V37.3564Z" fill="white"/>
<path d="M32.133 106.442C32.2599 106.442 32.384 106.479 32.4895 106.549C32.5951 106.62 32.6773 106.719 32.7259 106.836C32.7744 106.953 32.7872 107.082 32.7624 107.206C32.7376 107.33 32.6765 107.444 32.5868 107.533C32.497 107.623 32.3827 107.684 32.2582 107.708C32.1337 107.733 32.0047 107.72 31.8875 107.672C31.7702 107.623 31.67 107.541 31.5995 107.436C31.529 107.331 31.4913 107.207 31.4913 107.081C31.4917 106.912 31.5595 106.749 31.6797 106.629C31.8 106.509 31.963 106.442 32.133 106.442V106.442ZM32.133 104.855C31.6913 104.855 31.2595 104.986 30.8922 105.231C30.525 105.475 30.2387 105.823 30.0697 106.229C29.9006 106.636 29.8564 107.083 29.9426 107.515C30.0288 107.947 30.2415 108.343 30.5538 108.655C30.8661 108.966 31.2641 109.178 31.6973 109.264C32.1306 109.35 32.5796 109.306 32.9877 109.137C33.3958 108.969 33.7446 108.683 33.99 108.317C34.2354 107.951 34.3664 107.521 34.3664 107.081C34.3664 106.491 34.1311 105.925 33.7123 105.507C33.2934 105.09 32.7254 104.855 32.133 104.855Z" fill="white"/>
<path d="M66.6337 95.6208C62.9975 95.6208 59.3288 95.196 56.5496 94.7653C49.4808 93.6731 39.2993 91.1785 30.9367 85.5043C30.6417 85.3103 30.3467 85.1016 29.9941 84.8473C25.2102 81.4237 20.4057 77.6678 18.752 72.7316C18.1384 70.8956 18.3287 69.1948 19.3155 67.6792C21.5283 64.288 27.1338 62.8856 30.0974 62.5931C30.2035 62.5785 30.3115 62.5855 30.4149 62.6136C30.5183 62.6416 30.615 62.6902 30.6991 62.7563C30.7832 62.8225 30.8531 62.9048 30.9045 62.9985C30.956 63.0922 30.9879 63.1953 30.9984 63.3015C31.009 63.4078 30.9979 63.5151 30.9658 63.617C30.9337 63.7189 30.8814 63.8133 30.8119 63.8945C30.7423 63.9758 30.6571 64.0422 30.5612 64.0899C30.4653 64.1375 30.3607 64.1654 30.2537 64.1718C26.7753 64.5158 22.288 66.0299 20.6505 68.5421C19.9307 69.649 19.8038 70.8559 20.2626 72.2303C21.7613 76.7167 26.3505 80.2873 30.9234 83.5581C31.2672 83.805 31.5563 83.9991 31.8321 84.1931C39.9454 89.6968 49.8864 92.1311 56.793 93.1939C60.7759 93.8113 74.0847 95.4679 77.9554 90.9227C79.1636 89.5042 79.3495 87.5991 78.5263 85.0972C78.4867 84.9967 78.4681 84.8892 78.4717 84.7813C78.4753 84.6734 78.501 84.5673 78.5472 84.4697C78.5934 84.372 78.6591 84.2848 78.7403 84.2134C78.8216 84.1419 78.9166 84.0878 79.0196 84.0543C79.1226 84.0208 79.2314 84.0086 79.3393 84.0185C79.4472 84.0284 79.5519 84.0602 79.647 84.1118C79.7421 84.1635 79.8256 84.234 79.8924 84.319C79.9592 84.404 80.0079 84.5018 80.0354 84.6062C81.0326 87.6344 80.7405 90.1054 79.1665 91.9561C76.7576 94.7844 71.7289 95.6208 66.6337 95.6208Z" fill="white"/>
<path d="M49.4999 147C42.9994 147 36.5626 145.724 30.5569 143.246C24.5512 140.767 19.0943 137.133 14.4978 132.553C9.90123 127.972 6.2551 122.535 3.76756 116.55C1.28003 110.565 -0.000193707 104.151 2.19837e-08 97.673V49.328C-0.000189538 39.5719 2.90283 30.0348 8.34193 21.9229C13.781 13.8109 21.5119 7.48839 30.557 3.75487C39.602 0.0213477 49.555 -0.955493 59.1571 0.947879C68.7593 2.85125 77.5794 7.54934 84.5021 14.448C89.1129 19.0179 92.7684 24.4538 95.2569 30.4409C97.7455 36.4281 99.0176 42.8476 98.9998 49.328V97.673C99 104.151 97.7198 110.565 95.2323 116.55C92.7447 122.535 89.0986 127.972 84.5021 132.553C79.9055 137.133 74.4486 140.767 68.4429 143.246C62.4372 145.724 56.0004 147 49.4999 147V147ZM49.4999 1.91196C23.2586 1.91196 1.91031 23.1783 1.91031 49.328V97.673C1.91031 123.823 23.2586 145.096 49.4999 145.096C75.7412 145.096 97.0895 123.823 97.0895 97.673V49.328C97.0895 23.1783 75.7412 1.91196 49.4999 1.91196Z" fill="white"/>
<path d="M16.3697 109.649C16.1946 109.104 15.8996 108.764 15.4846 108.627C15.0696 108.491 14.5705 108.517 13.9873 108.704C13.7283 108.785 13.4805 108.898 13.2498 109.04C13.053 109.161 12.8804 109.317 12.7408 109.501C12.6146 109.67 12.5316 109.867 12.4989 110.075C12.4668 110.302 12.489 110.532 12.5638 110.749C12.6051 110.879 12.6449 110.99 12.6803 111.081C12.7102 111.162 12.7472 111.24 12.791 111.315L14.8001 110.672L15.1763 111.848L12.3175 112.761C12.1624 112.569 12.0242 112.364 11.9044 112.148C11.7078 111.794 11.5491 111.42 11.4309 111.032C11.3069 110.671 11.2568 110.288 11.2834 109.906C11.3134 109.553 11.4234 109.21 11.605 108.905C11.8042 108.582 12.0677 108.302 12.3794 108.084C12.7506 107.824 13.161 107.626 13.5949 107.496C14.0288 107.349 14.4851 107.279 14.9432 107.288C15.3311 107.298 15.7131 107.385 16.0673 107.543C16.3963 107.69 16.6881 107.909 16.9214 108.183C17.1596 108.463 17.3391 108.788 17.4495 109.137C17.5222 109.359 17.5755 109.587 17.6088 109.818C17.6338 110.001 17.6466 110.185 17.6472 110.369C17.648 110.503 17.6371 110.636 17.6147 110.768C17.6018 110.847 17.5846 110.926 17.5631 111.004H16.4125C16.4567 110.797 16.4795 110.586 16.4803 110.374C16.4834 110.128 16.446 109.883 16.3697 109.649V109.649Z" fill="white"/>
<path d="M19.3303 113.778C19.7138 114.502 19.8643 115.133 19.7817 115.67C19.6991 116.207 19.3549 116.634 18.7491 116.95C18.4347 117.134 18.0728 117.22 17.7091 117.199C17.3753 117.16 17.0596 117.027 16.799 116.815C16.7164 116.984 16.6175 117.166 16.5039 117.365C16.3903 117.563 16.2635 117.763 16.1307 117.966C15.998 118.169 15.8549 118.373 15.7015 118.579C15.548 118.785 15.3976 118.979 15.2456 119.167L14.6025 117.951L14.9949 117.4C15.1276 117.215 15.2535 117.03 15.3725 116.845C15.492 116.659 15.6041 116.48 15.7074 116.307C15.8106 116.133 15.8991 115.968 15.9729 115.81L15.6897 115.273L13.7307 116.302L13.1554 115.214L18.4423 112.439C18.6231 112.653 18.7892 112.88 18.9394 113.117C19.0938 113.355 19.2241 113.575 19.3303 113.778ZM18.3346 114.381C18.2918 114.301 18.252 114.234 18.2136 114.172L18.1045 114.003L16.6485 114.767L16.8108 115.075C17.0276 115.483 17.2386 115.746 17.4466 115.863C17.6545 115.979 17.8891 115.967 18.1664 115.823C18.2808 115.775 18.3803 115.698 18.4543 115.599C18.5283 115.5 18.5741 115.383 18.5868 115.26C18.5844 114.948 18.4972 114.643 18.3346 114.376V114.381Z" fill="white"/>
<path d="M18.9158 124.134C19.0441 123.957 19.1739 123.773 19.3052 123.58C19.4365 123.388 19.5663 123.198 19.6961 123.007L18.3685 121.331L17.7165 121.578C17.5001 121.66 17.2906 121.743 17.088 121.825L16.2959 120.823C16.9361 120.581 17.5311 120.362 18.0808 120.165C18.6306 119.968 19.1528 119.788 19.6474 119.624C20.1391 119.462 20.6127 119.312 21.068 119.175C21.5209 119.036 21.9693 118.912 22.4133 118.797L23.1376 119.713C22.9193 120.113 22.6911 120.517 22.4531 120.925C22.2152 121.334 21.9585 121.759 21.6831 122.2C21.4087 122.641 21.1137 123.105 20.798 123.592C20.4824 124.079 20.1293 124.605 19.7389 125.169L18.9158 124.134ZM21.6831 120.082C21.5976 120.115 21.4781 120.157 21.3261 120.21C21.1742 120.262 20.9987 120.321 20.801 120.392L20.1445 120.618C19.9056 120.701 19.6563 120.787 19.3966 120.881L20.3673 122.109C20.5222 121.881 20.6623 121.668 20.8098 121.453C20.9573 121.239 21.0754 121.05 21.1875 120.865C21.2996 120.68 21.3984 120.53 21.4825 120.396C21.5666 120.262 21.6359 120.161 21.6831 120.082V120.082Z" fill="white"/>
<path d="M26.588 123.236C27.1967 123.78 27.5577 124.316 27.6708 124.843C27.7838 125.37 27.599 125.902 27.1161 126.438C26.6293 126.979 26.113 127.224 25.5672 127.173C25.0214 127.122 24.4431 126.818 23.8324 126.263L23.5374 126.006L22.1817 127.511L21.2627 126.689L25.2545 122.257C25.5041 122.4 25.7436 122.56 25.9714 122.735C26.2148 122.917 26.4198 123.085 26.588 123.236ZM25.8696 124.15C25.8032 124.092 25.7354 124.034 25.6675 123.981C25.5997 123.928 25.5377 123.881 25.4875 123.845L24.3192 125.143L24.6069 125.4C24.8412 125.636 25.1329 125.809 25.4536 125.9C25.6995 125.948 25.9399 125.842 26.175 125.584C26.2748 125.479 26.3495 125.354 26.3933 125.216C26.4257 125.1 26.4257 124.977 26.3933 124.86C26.3552 124.731 26.292 124.611 26.2074 124.506C26.1051 124.378 25.9921 124.259 25.8696 124.15V124.15Z" fill="white"/>
<path d="M32.2865 127.506L33.3338 128.158L30.1254 133.285L29.078 132.634L30.4396 130.46L28.6797 129.36L27.3197 131.536L26.2723 130.886L29.4808 125.757L30.5266 126.408L29.3008 128.369L31.0606 129.467L32.2865 127.506Z" fill="white"/>
<path d="M34.9225 128.869L36.0495 129.37L33.5831 134.89L32.4561 134.39L34.9225 128.869Z" fill="white"/>
<path d="M38.3036 136.676C37.449 136.424 36.8761 135.969 36.585 135.312C36.2939 134.656 36.2939 133.846 36.585 132.882C36.7096 132.444 36.9092 132.03 37.1751 131.659C37.4027 131.344 37.6904 131.077 38.0218 130.873C38.3333 130.685 38.6832 130.57 39.0456 130.536C39.4262 130.5 39.8102 130.54 40.1755 130.652C40.3793 130.711 40.5768 130.79 40.7656 130.886C40.9189 130.965 41.0668 131.055 41.2081 131.154C41.3134 131.227 41.4121 131.31 41.5032 131.401C41.5799 131.477 41.633 131.536 41.6654 131.576L41.0105 132.528C40.8621 132.373 40.6968 132.236 40.5178 132.118C40.3012 131.977 40.0644 131.87 39.8156 131.8C39.6323 131.747 39.4409 131.728 39.2506 131.743C39.0527 131.759 38.8616 131.822 38.693 131.927C38.4981 132.051 38.3305 132.214 38.2003 132.405C38.0301 132.654 37.903 132.929 37.8242 133.22C37.7463 133.471 37.6968 133.73 37.6766 133.992C37.6588 134.22 37.6859 134.449 37.7563 134.667C37.8268 134.871 37.9463 135.055 38.1044 135.202C38.2911 135.37 38.5151 135.491 38.7579 135.555C38.9123 135.602 39.0701 135.637 39.23 135.659C39.3583 135.673 39.4873 135.681 39.6165 135.681C39.7206 135.683 39.8248 135.675 39.9277 135.659L40.1814 135.616L40.1947 136.757C39.9357 136.827 39.6678 136.858 39.3996 136.85C39.0278 136.844 38.6587 136.786 38.3036 136.676V136.676Z" fill="white"/>
<path d="M58.3346 133.917C58.4307 134.373 58.4427 134.843 58.37 135.303C58.3063 135.688 58.1549 136.053 57.9274 136.37C57.6967 136.681 57.3994 136.937 57.0571 137.119C56.6648 137.327 56.2415 137.472 55.8032 137.548C55.5849 137.589 55.3297 137.627 55.0347 137.661C54.7434 137.695 54.45 137.707 54.1569 137.696L53.0668 131.912C53.3444 131.8 53.6292 131.706 53.9194 131.633C54.2145 131.556 54.4731 131.497 54.6954 131.456C55.1192 131.372 55.5531 131.351 55.9832 131.393C56.3622 131.431 56.7278 131.553 57.0527 131.752C57.3812 131.96 57.6553 132.243 57.8522 132.578C58.0919 132.992 58.2552 133.446 58.3346 133.917V133.917ZM55.1836 136.459C55.2412 136.459 55.3076 136.445 55.3843 136.434C55.461 136.422 55.5495 136.407 55.6527 136.388C56.2595 136.275 56.6775 136.023 56.9066 135.631C57.1357 135.239 57.1943 134.746 57.0822 134.151C56.9661 133.529 56.7375 133.085 56.3962 132.816C56.055 132.547 55.5819 132.471 54.9771 132.585C54.893 132.6 54.809 132.618 54.7204 132.637C54.6377 132.656 54.556 132.679 54.4756 132.706L55.1836 136.459Z" fill="white"/>
<path d="M61.2583 136.163L59.137 130.504L62.6051 129.213L63.0049 130.283L60.6933 131.145L61.1108 132.255L63.1627 131.492L63.5551 132.537L61.5017 133.301L62.0136 134.665L64.4962 133.741L64.8975 134.811L61.2583 136.163Z" fill="white"/>
<path d="M67.7548 132.181C67.8834 132.113 68.002 132.028 68.1074 131.928C68.181 131.858 68.2401 131.774 68.2814 131.681C68.3133 131.605 68.3225 131.521 68.308 131.44C68.2925 131.356 68.2626 131.275 68.2195 131.201C68.1723 131.117 68.1057 131.045 68.0251 130.992C67.9445 130.939 67.8523 130.905 67.7563 130.895C67.4332 130.869 67.108 130.887 66.7901 130.951C66.5983 130.977 66.4036 130.996 66.2 131.005C66.0013 131.014 65.8024 130.994 65.6099 130.943C65.4125 130.891 65.2268 130.802 65.0627 130.68C64.869 130.531 64.71 130.342 64.5965 130.126C64.466 129.903 64.3817 129.656 64.3487 129.4C64.3211 129.166 64.3458 128.928 64.421 128.705C64.5012 128.473 64.6282 128.26 64.7942 128.08C64.9866 127.871 65.2124 127.696 65.4624 127.561C65.742 127.397 66.0456 127.277 66.3623 127.207C66.5988 127.156 66.8402 127.131 67.0821 127.133L67.299 128.243C67.1121 128.243 66.9255 128.258 66.7414 128.29C66.5163 128.334 66.3003 128.416 66.1026 128.533C65.9013 128.626 65.7312 128.775 65.6129 128.962C65.5797 129.035 65.5655 129.115 65.5717 129.194C65.5779 129.274 65.6043 129.351 65.6483 129.418C65.6938 129.504 65.7628 129.577 65.8474 129.626C65.9331 129.671 66.0269 129.698 66.1233 129.706C66.2376 129.717 66.3527 129.717 66.467 129.706C66.5909 129.692 66.7251 129.676 66.8697 129.654C67.1409 129.62 67.4137 129.599 67.6869 129.592C67.9082 129.585 68.129 129.615 68.3404 129.681C68.5388 129.745 68.7209 129.851 68.8744 129.992C69.057 130.165 69.2104 130.366 69.3288 130.588C69.6061 131.078 69.6651 131.547 69.5058 131.994C69.3465 132.442 68.9531 132.842 68.3257 133.192C68.1368 133.301 67.9395 133.395 67.7356 133.472C67.5692 133.533 67.3986 133.582 67.2252 133.619C67.0903 133.649 66.9532 133.67 66.8151 133.679C66.7115 133.685 66.6076 133.685 66.5039 133.679L66.2767 132.566C66.4977 132.57 66.7183 132.548 66.9346 132.503C67.2231 132.439 67.4998 132.33 67.7548 132.181Z" fill="white"/>
<path d="M68.3626 125.903L69.3568 125.168L72.9459 130.038L71.9516 130.773L68.3626 125.903Z" fill="white"/>
<path d="M73.4164 123.03C73.0034 123.422 72.8268 123.837 72.8868 124.273C72.9488 124.702 73.1907 125.137 73.6244 125.576C73.8113 125.774 74.023 125.947 74.2543 126.091C74.4498 126.213 74.6664 126.298 74.893 126.342C75.1009 126.381 75.3151 126.368 75.517 126.306C75.7355 126.235 75.9337 126.113 76.0952 125.95C76.1941 125.856 76.2767 125.772 76.3431 125.7C76.4025 125.637 76.4564 125.569 76.5039 125.497L75.0405 123.984L75.9256 123.132L78.0085 125.284C77.9044 125.507 77.781 125.721 77.6397 125.923C77.4081 126.256 77.1416 126.563 76.8446 126.839C76.5725 127.108 76.2489 127.32 75.8932 127.462C75.5621 127.593 75.2053 127.647 74.8502 127.618C74.4707 127.583 74.1023 127.471 73.7675 127.289C73.3693 127.072 73.0082 126.793 72.698 126.463C72.375 126.139 72.1105 125.762 71.9162 125.349C71.7541 124.997 71.6633 124.618 71.6492 124.231C71.6374 123.872 71.7059 123.514 71.8498 123.183C71.9963 122.848 72.209 122.545 72.4752 122.293C72.775 121.999 73.1201 121.755 73.4975 121.571C73.6175 121.511 73.7424 121.462 73.8707 121.424C73.9483 121.401 74.0271 121.382 74.1068 121.368L74.6098 122.397C74.4034 122.448 74.2032 122.521 74.0123 122.614C73.7921 122.72 73.5908 122.86 73.4164 123.03V123.03Z" fill="white"/>
<path d="M82.0121 120.467C81.242 120.351 80.4622 120.263 79.6725 120.204C78.9 120.146 78.1249 120.13 77.3506 120.156L80.5812 122.461L79.8716 123.448L74.9402 119.932L75.5303 119.117C75.787 119.088 76.0923 119.069 76.4419 119.06C76.7915 119.051 77.1603 119.051 77.5468 119.06C77.9333 119.069 78.3272 119.082 78.7269 119.104C79.1267 119.126 79.5147 119.152 79.8805 119.182L76.9715 117.106L77.684 116.113L82.6154 119.629L82.0121 120.467Z" fill="white"/>
<path d="M83.9563 117.274L78.4909 114.66L80.0959 111.337L81.1285 111.832L80.059 114.047L81.1314 114.562L82.0814 112.594L83.0904 113.077L82.1404 115.045L83.4577 115.676L84.6083 113.29L85.6409 113.786L83.9563 117.274Z" fill="white"/>
<path d="M81.0281 108.363C81.2583 107.579 81.5897 107.021 82.0224 106.69C82.4551 106.359 82.9994 106.29 83.6554 106.483C84.0102 106.568 84.3313 106.758 84.5773 107.027C84.7895 107.285 84.9235 107.599 84.9638 107.931C85.1408 107.867 85.34 107.806 85.5613 107.744C85.7825 107.682 86.0126 107.625 86.2501 107.57C86.4876 107.516 86.7325 107.468 86.9877 107.423C87.2429 107.379 87.4863 107.347 87.7253 107.318L87.3388 108.641L86.6735 108.764C86.4493 108.807 86.231 108.852 86.0126 108.902C85.7943 108.952 85.5937 109.004 85.3975 109.049C85.2013 109.095 85.0243 109.161 84.8606 109.223L84.6894 109.811L86.8136 110.43L86.4685 111.606L80.7287 109.943C80.7485 109.663 80.7874 109.385 80.8452 109.111C80.9028 108.829 80.9632 108.58 81.0281 108.363ZM82.164 108.62C82.1389 108.705 82.1198 108.783 82.105 108.852C82.0902 108.921 82.0784 108.989 82.0652 109.051L83.645 109.515L83.7424 109.183C83.8722 108.739 83.9037 108.403 83.8368 108.176C83.7956 108.057 83.7233 107.95 83.6275 107.868C83.5316 107.785 83.4155 107.729 83.291 107.706C83.1757 107.66 83.0503 107.647 82.9279 107.667C82.8056 107.687 82.691 107.739 82.5962 107.819C82.383 108.043 82.2337 108.319 82.164 108.62V108.62Z" fill="white"/>
<path d="M48.0277 136.265C48.6143 136.265 49.0898 135.791 49.0898 135.206C49.0898 134.622 48.6143 134.148 48.0277 134.148C47.4411 134.148 46.9656 134.622 46.9656 135.206C46.9656 135.791 47.4411 136.265 48.0277 136.265Z" fill="white"/>
<path d="M22.1124 30.1357C21.9251 30.0784 21.7303 30.0196 21.5224 29.9638L20.9234 29.7918L19.9572 31.3073L20.3703 31.7748C20.5075 31.9321 20.6432 32.082 20.7759 32.2246L20.1977 33.1316C19.7935 32.672 19.4222 32.2427 19.0839 31.8439C18.7456 31.445 18.4295 31.0653 18.1354 30.7046C17.8404 30.343 17.565 29.9956 17.3093 29.6624C17.0536 29.3292 16.8078 28.9955 16.5718 28.6613L17.0984 27.8337C17.4996 27.9082 17.9073 27.9896 18.3213 28.0778C18.7353 28.166 19.169 28.264 19.6224 28.3718C20.0747 28.4825 20.5542 28.6055 21.0606 28.7407C21.5671 28.876 22.1149 29.0279 22.7039 29.1964L22.1124 30.1357ZM17.8743 28.9274C17.9289 28.9892 18.0012 29.0744 18.0926 29.1861C18.1841 29.2978 18.2903 29.4243 18.4113 29.5669C18.5322 29.7094 18.665 29.8697 18.8081 30.0446C18.9512 30.2195 19.1031 30.3989 19.2654 30.587L19.972 29.4772L19.289 29.2861C19.0707 29.2273 18.87 29.1744 18.6871 29.1288L18.2033 29.0068C18.0631 28.9671 17.954 28.9406 17.8743 28.923V28.9274Z" fill="white"/>
<path d="M25.6026 25.883C24.9388 25.687 24.2641 25.5125 23.5787 25.3597C22.9112 25.2106 22.2361 25.0982 21.5563 25.023L24.2115 27.4147L23.5241 28.1732L19.4645 24.5218L20.031 23.897C20.2581 23.9049 20.5251 23.9269 20.832 23.9632C21.1373 24.0014 21.4589 24.047 21.7952 24.1102C22.1316 24.1734 22.4753 24.2278 22.8278 24.2983C23.1804 24.3689 23.5123 24.4453 23.8309 24.5129L21.4353 22.3447L22.1257 21.5818L26.1926 25.2377L25.6026 25.883Z" fill="white"/>
<path d="M28.9733 19.3932C29.24 19.7174 29.45 20.0842 29.5943 20.478C29.7108 20.8022 29.7536 21.1482 29.7197 21.4909C29.6808 21.8197 29.5662 22.1351 29.3849 22.4125C29.1803 22.7262 28.9234 23.0027 28.6252 23.2299C28.4776 23.3445 28.3021 23.4709 28.0941 23.6106C27.8889 23.7484 27.6729 23.8694 27.448 23.9722L24.154 19.8004C24.315 19.6066 24.4901 19.4248 24.6777 19.2565C24.8744 19.082 25.0435 18.935 25.1851 18.8155C25.4689 18.5873 25.787 18.4053 26.1277 18.276C26.4336 18.1619 26.7618 18.1201 27.0866 18.154C27.4278 18.1966 27.7544 18.3173 28.041 18.5068C28.4 18.7474 28.7152 19.0472 28.9733 19.3932ZM27.6884 22.6022C27.7297 22.5772 27.7769 22.5448 27.836 22.5081C27.895 22.4713 27.9481 22.4243 28.0189 22.3611C28.426 22.0426 28.632 21.6839 28.637 21.2851C28.6419 20.8862 28.4757 20.4731 28.1384 20.0459C27.7833 19.598 27.4205 19.3324 27.0497 19.2491C26.6789 19.1658 26.29 19.2839 25.8829 19.6034C25.8268 19.6475 25.7693 19.6945 25.7117 19.743C25.6599 19.7893 25.6106 19.8383 25.5642 19.89L27.6884 22.6022Z" fill="white"/>
<path d="M32.0224 20.6955L29.348 15.9416L32.0652 14.4246L32.5712 15.3227L30.7656 16.3341L31.2893 17.2675L32.8972 16.3694L33.3914 17.2514L31.7835 18.1495L32.4281 19.2946L34.3723 18.2083L34.8783 19.1079L32.0224 20.6955Z" fill="white"/>
<path d="M35.5554 12.8414C36.2025 12.5993 36.7498 12.5503 37.1972 12.6944C37.6447 12.8385 37.9771 13.1966 38.1944 13.769C38.3234 14.0679 38.3658 14.3968 38.3169 14.7186C38.2578 15.0027 38.118 15.264 37.9141 15.4712C38.0499 15.5653 38.1959 15.677 38.3567 15.8064C38.5175 15.9357 38.6738 16.071 38.8346 16.215C38.9954 16.3591 39.1577 16.509 39.317 16.6722C39.4763 16.8354 39.6312 16.9926 39.7758 17.1514L38.6901 17.5586L38.2579 17.1411C38.1103 16.9941 37.9628 16.8648 37.8153 16.7354C37.6678 16.606 37.5203 16.484 37.3875 16.3708C37.2548 16.2576 37.1176 16.1577 36.9892 16.0768L36.5098 16.2576L37.2134 18.1187L36.2428 18.4832L34.3413 13.45C34.5385 13.3184 34.7451 13.2014 34.9594 13.1001C35.1778 12.9957 35.3769 12.909 35.5554 12.8414ZM35.9817 13.7998C35.9109 13.8263 35.8489 13.8527 35.7944 13.8777L35.6468 13.9527L36.1705 15.336L36.4449 15.2331C36.8093 15.0949 37.0512 14.9391 37.1677 14.7759C37.2264 14.6802 37.2598 14.5711 37.2647 14.459C37.2696 14.3469 37.2459 14.2354 37.1957 14.135C37.1667 14.0296 37.1106 13.9335 37.033 13.8562C36.9554 13.7788 36.859 13.723 36.7532 13.694C36.4912 13.6539 36.2231 13.6907 35.9817 13.7998V13.7998Z" fill="white"/>
<path d="M42.1684 15.6212C42.2884 15.5981 42.4046 15.5585 42.5136 15.5036C42.591 15.4635 42.6589 15.4073 42.7128 15.339C42.7571 15.2819 42.7847 15.2137 42.7924 15.142C42.7998 15.0648 42.7948 14.9869 42.7777 14.9112C42.7606 14.8275 42.7244 14.7489 42.672 14.6813C42.6196 14.6138 42.5523 14.5591 42.4753 14.5216C42.2219 14.4103 41.9535 14.3365 41.6787 14.3026C41.514 14.2725 41.351 14.2337 41.1904 14.1865C41.0258 14.1378 40.8699 14.0634 40.7287 13.966C40.5825 13.866 40.4555 13.7405 40.354 13.5956C40.2315 13.4135 40.1477 13.2084 40.1077 12.9929C40.0552 12.7668 40.0462 12.5329 40.0811 12.3034C40.1128 12.098 40.1888 11.9019 40.3039 11.7287C40.4212 11.5538 40.5752 11.4064 40.7553 11.2965C40.9599 11.1717 41.1852 11.0841 41.4205 11.0378C41.6865 10.9742 41.9613 10.9558 42.2333 10.9834C42.4382 11.0051 42.6397 11.051 42.8337 11.1201L42.7452 12.1285C42.5946 12.0764 42.4396 12.038 42.282 12.0138C42.0899 11.9899 41.895 12.0008 41.7067 12.0462C41.5207 12.0702 41.3466 12.1508 41.2081 12.277C41.1635 12.3323 41.133 12.3976 41.1191 12.4672C41.1053 12.5368 41.1085 12.6087 41.1285 12.6768C41.1438 12.7634 41.1826 12.8442 41.2406 12.9105C41.2983 12.9728 41.368 13.0228 41.4456 13.0575C41.5347 13.0992 41.6282 13.1307 41.7244 13.1516C41.8262 13.1751 41.9398 13.1972 42.0622 13.2192C42.291 13.2636 42.5171 13.321 42.7393 13.3912C42.9221 13.4481 43.0942 13.5351 43.2482 13.6485C43.3916 13.7604 43.511 13.8998 43.5993 14.0586C43.7053 14.2581 43.7813 14.4721 43.825 14.6936C43.9322 15.1905 43.8683 15.608 43.6333 15.9461C43.3982 16.2842 42.9832 16.5169 42.3882 16.6443C42.2078 16.6846 42.0242 16.7092 41.8395 16.7178C41.6894 16.7242 41.539 16.7198 41.3896 16.7046C41.2724 16.694 41.1565 16.6733 41.0429 16.6428C40.9572 16.6205 40.873 16.593 40.7907 16.5605L40.8703 15.5462C41.0476 15.61 41.2318 15.6529 41.4191 15.6741C41.6701 15.6983 41.9234 15.6804 42.1684 15.6212V15.6212Z" fill="white"/>
<path d="M49.8879 12.9618C49.9173 13.3775 49.8805 13.7953 49.7787 14.1995C49.6969 14.5283 49.5521 14.8383 49.3524 15.1124C49.1672 15.3561 48.9279 15.5538 48.6532 15.6901C48.3732 15.8269 48.0678 15.9045 47.7563 15.9179C47.4499 15.9369 47.1429 15.8918 46.855 15.7856C46.5675 15.6782 46.3079 15.5079 46.0953 15.2873C45.8604 15.0382 45.6769 14.7455 45.5554 14.4259C45.408 14.0356 45.3253 13.624 45.3105 13.2073C45.2805 12.7904 45.3208 12.3715 45.43 11.9681C45.5207 11.6358 45.6744 11.3239 45.8829 11.0493C46.0697 10.8033 46.3097 10.6024 46.585 10.4613C46.8544 10.3269 47.1486 10.2493 47.4495 10.2335C47.7555 10.2158 48.0618 10.2613 48.3493 10.3672C48.6363 10.4784 48.8942 10.6533 49.1031 10.8788C49.3391 11.1284 49.524 11.4215 49.6474 11.7417C49.7933 12.1327 49.8745 12.5448 49.8879 12.9618ZM46.3726 13.1499C46.3829 13.3932 46.424 13.6343 46.495 13.8673C46.553 14.061 46.6438 14.2435 46.7635 14.4068C46.8683 14.5494 47.0059 14.6648 47.1648 14.7434C47.3282 14.8212 47.5092 14.8551 47.6899 14.8419C47.8693 14.8369 48.0445 14.7863 48.1988 14.6949C48.3497 14.6003 48.4752 14.4707 48.5647 14.3171C48.6663 14.1417 48.7372 13.9503 48.7741 13.7511C48.8198 13.5119 48.8346 13.2679 48.8184 13.025C48.8073 12.7798 48.7661 12.537 48.696 12.3017C48.638 12.1063 48.5467 11.9223 48.426 11.7578C48.3224 11.6127 48.1846 11.495 48.0248 11.4153C47.8619 11.3389 47.6822 11.305 47.5026 11.3168C47.3214 11.3232 47.1453 11.3775 46.9922 11.4741C46.8433 11.5721 46.7192 11.7028 46.6293 11.8563C46.5274 12.0332 46.4565 12.2261 46.4198 12.4267C46.3734 12.6648 46.3576 12.9078 46.3726 13.1499V13.1499Z" fill="white"/>
<path d="M54.6836 16.134C54.4633 15.4784 54.2174 14.8282 53.946 14.1833C53.6845 13.5544 53.3891 12.94 53.0609 12.3429L52.6317 15.8856L51.6153 15.7636L52.2702 10.354L53.1096 10.4554C53.2335 10.6436 53.3692 10.8744 53.5153 11.1449C53.6613 11.4153 53.8103 11.7049 53.9578 12.0107C54.1053 12.3164 54.2528 12.631 54.4004 12.9574C54.5479 13.2837 54.6792 13.5968 54.8031 13.8967L55.1896 10.7039L56.2148 10.8273L55.548 16.2369L54.6836 16.134Z" fill="white"/>
<path d="M67.9613 14.9199C67.9436 15.1096 67.9156 15.3418 67.8773 15.6138C67.8389 15.8857 67.7946 16.1783 67.743 16.4958C67.6914 16.8133 67.6353 17.1279 67.5749 17.4498C67.5144 17.7717 67.4583 18.0775 67.4052 18.3612L68.1177 17.7644C68.37 17.5542 68.6192 17.3484 68.8671 17.1499C69.1149 16.9515 69.348 16.7677 69.5663 16.6001C69.7846 16.4326 69.9734 16.2944 70.1298 16.1856L70.947 16.6589C70.8025 16.9941 70.6333 17.3645 70.4396 17.7703C70.2458 18.176 70.0388 18.5959 69.8185 19.03C69.5983 19.4642 69.3755 19.8978 69.1503 20.331C68.9251 20.7641 68.7117 21.1708 68.5101 21.5511L67.6353 21.0439C67.892 20.5794 68.1683 20.0723 68.4644 19.5225C68.7604 18.9727 69.049 18.4126 69.3303 17.8423L68.7314 18.3391C68.5116 18.5214 68.2888 18.7037 68.0749 18.8874L67.448 19.4049L66.9361 19.8312L66.3166 19.4666C66.3505 19.2858 66.3903 19.0683 66.436 18.8125C66.4818 18.5567 66.5319 18.2906 66.5836 18.0113C66.6352 17.732 66.6883 17.4527 66.7311 17.1734C66.7738 16.8941 66.827 16.6369 66.8697 16.4076C66.5118 16.9328 66.1651 17.4596 65.8298 17.9878C65.4944 18.516 65.1881 19.006 64.9107 19.4578L64.036 18.9507C64.2671 18.589 64.5169 18.2034 64.7854 17.7938C65.0538 17.3841 65.3228 16.9774 65.5923 16.5737C65.8607 16.1694 66.1263 15.7828 66.3844 15.4139C66.6426 15.0449 66.8845 14.7171 67.1043 14.426L67.9613 14.9199Z" fill="white"/>
<path d="M69.8023 22.5683L73.3205 18.3965L75.7043 20.3927L75.0391 21.1821L73.4503 19.8459L72.76 20.6647L74.1702 21.8407L73.5211 22.6109L72.1094 21.435L71.2612 22.4404L72.968 23.8707L72.3041 24.6586L69.8023 22.5683Z" fill="white"/>
<path d="M76.2222 27.312L75.4359 28.0176L73.3707 25.7347L77.4332 22.0891L78.128 22.8564L74.8517 25.7964L76.2222 27.312Z" fill="white"/>
<path d="M80.9293 31.1647C80.5832 31.3994 80.2018 31.5775 79.7993 31.6924C79.4714 31.7865 79.128 31.8155 78.7889 31.7776C78.4845 31.7419 78.1929 31.6351 77.9377 31.466C77.6786 31.293 77.4573 31.0695 77.2872 30.8089C77.1181 30.554 77.0032 30.2674 76.9494 29.9666C76.8974 29.6648 76.915 29.3551 77.001 29.0611C77.0984 28.7335 77.2598 28.4282 77.476 28.1629C77.7418 27.8409 78.0581 27.5639 78.4127 27.3427C78.759 27.1074 79.1425 26.9315 79.5471 26.8223C79.8837 26.7338 80.2341 26.7098 80.5797 26.7518C80.8853 26.7908 81.1782 26.8978 81.4368 27.0649C81.6885 27.229 81.9034 27.4432 82.0681 27.694C82.2372 27.9489 82.3521 28.2355 82.4059 28.5363C82.4576 28.8393 82.4389 29.1501 82.3513 29.4448C82.2526 29.7729 82.0902 30.0785 81.8734 30.3444C81.6054 30.667 81.2866 30.9441 80.9293 31.1647ZM79.0028 28.2247C78.7975 28.3565 78.6092 28.513 78.4422 28.6907C78.3028 28.8384 78.1901 29.009 78.1088 29.1949C78.0371 29.3565 78.0062 29.5331 78.0189 29.7094C78.033 29.8897 78.0945 30.0631 78.1973 30.2121C78.2937 30.3632 78.4273 30.4871 78.5853 30.5723C78.7431 30.655 78.9189 30.6979 79.0972 30.6972C79.2984 30.6963 79.498 30.661 79.6872 30.5928C79.9175 30.5118 80.1366 30.4022 80.3392 30.2665C80.5464 30.1342 80.7362 29.9767 80.9042 29.7976C81.0445 29.6491 81.1587 29.4782 81.242 29.2919C81.3132 29.1286 81.3431 28.9504 81.3291 28.773C81.3138 28.5945 81.2528 28.423 81.152 28.2747C81.0556 28.1212 80.9196 27.9963 80.7582 27.913C80.5987 27.8341 80.4229 27.7933 80.2448 27.794C80.0405 27.7941 79.8378 27.83 79.6459 27.8998C79.4193 27.9821 79.2033 28.0911 79.0028 28.2247Z" fill="white"/>
<path d="M60.9632 15.7608C61.5498 15.7608 62.0254 15.287 62.0254 14.7024C62.0254 14.1179 61.5498 13.644 60.9632 13.644C60.3767 13.644 59.9011 14.1179 59.9011 14.7024C59.9011 15.287 60.3767 15.7608 60.9632 15.7608Z" fill="white"/>
<path d="M90.1003 71.4499C90.418 71.4496 90.7288 71.5431 90.9932 71.7187C91.2577 71.8942 91.464 72.1439 91.5861 72.4363C91.7083 72.7286 91.7408 73.0504 91.6795 73.3611C91.6182 73.6719 91.4659 73.9575 91.2418 74.182C91.0178 74.4065 90.7319 74.5599 90.4205 74.6226C90.109 74.6854 89.7859 74.6548 89.4919 74.5347C89.1979 74.4146 88.9462 74.2104 88.7685 73.9478C88.5909 73.6853 88.4953 73.3761 88.4939 73.0595C88.4942 72.6349 88.6636 72.2278 88.9647 71.9275C89.2658 71.6271 89.6742 71.458 90.1003 71.4572V71.4499ZM90.1003 69.8711C89.4675 69.8711 88.8489 70.0581 88.3227 70.4084C87.7965 70.7588 87.3864 71.2567 87.1442 71.8393C86.9021 72.422 86.8387 73.063 86.9622 73.6815C87.0856 74.3 87.3904 74.8681 87.8378 75.314C88.2853 75.76 88.8554 76.0636 89.4761 76.1866C90.0967 76.3097 90.7401 76.2465 91.3247 76.0052C91.9094 75.7639 92.4091 75.3552 92.7607 74.8309C93.1122 74.3066 93.2999 73.6901 93.2999 73.0595C93.3001 72.6407 93.2174 72.226 93.0567 71.8391C92.896 71.4522 92.6603 71.1006 92.3632 70.8045C92.066 70.5084 91.7132 70.2736 91.325 70.1134C90.9367 69.9532 90.5205 69.8709 90.1003 69.8711V69.8711Z" fill="white"/>
<path d="M90.1003 65.1612C89.8894 65.1612 89.6872 65.0777 89.538 64.9291C89.3889 64.7805 89.3052 64.579 89.3052 64.3688V57.2923C89.3005 57.1853 89.3177 57.0784 89.3556 56.9782C89.3935 56.878 89.4514 56.7864 89.5258 56.7091C89.6001 56.6317 89.6894 56.5701 89.7883 56.5281C89.8871 56.486 89.9935 56.4644 90.101 56.4644C90.2085 56.4644 90.3149 56.486 90.4137 56.5281C90.5126 56.5701 90.6019 56.6317 90.6763 56.7091C90.7506 56.7864 90.8085 56.878 90.8464 56.9782C90.8843 57.0784 90.9015 57.1853 90.8968 57.2923V64.3688C90.8968 64.473 90.8762 64.5762 90.8362 64.6724C90.7961 64.7686 90.7374 64.856 90.6634 64.9296C90.5895 65.0032 90.5016 65.0615 90.405 65.1013C90.3084 65.141 90.2048 65.1614 90.1003 65.1612Z" fill="white"/>
<path d="M90.1003 89.6043C89.9957 89.6043 89.8922 89.5837 89.7957 89.5438C89.6991 89.5039 89.6114 89.4454 89.5375 89.3717C89.4637 89.298 89.4051 89.2104 89.3653 89.1142C89.3254 89.0179 89.305 88.9147 89.3052 88.8105V81.7325C89.3005 81.6255 89.3177 81.5186 89.3556 81.4184C89.3935 81.3182 89.4514 81.2266 89.5258 81.1492C89.6001 81.0719 89.6894 81.0103 89.7883 80.9683C89.8871 80.9262 89.9935 80.9045 90.101 80.9045C90.2085 80.9045 90.3149 80.9262 90.4137 80.9683C90.5126 81.0103 90.6019 81.0719 90.6763 81.1492C90.7506 81.2266 90.8085 81.3182 90.8464 81.4184C90.8843 81.5186 90.9015 81.6255 90.8968 81.7325V88.8075C90.8972 88.912 90.8769 89.0156 90.8371 89.1122C90.7972 89.2089 90.7386 89.2967 90.6646 89.3707C90.5906 89.4448 90.5026 89.5035 90.4058 89.5436C90.309 89.5836 90.2051 89.6043 90.1003 89.6043V89.6043Z" fill="white"/>
<path d="M8.89956 71.4499C9.21757 71.4499 9.52844 71.5439 9.79286 71.7199C10.0573 71.896 10.2634 72.1462 10.3851 72.439C10.5068 72.7318 10.5386 73.054 10.4766 73.3648C10.4145 73.6756 10.2614 73.9611 10.0365 74.1852C9.81165 74.4093 9.52515 74.5619 9.21324 74.6237C8.90134 74.6855 8.57804 74.6538 8.28424 74.5325C7.99043 74.4112 7.73931 74.2059 7.56263 73.9424C7.38595 73.6789 7.29165 73.3691 7.29165 73.0522C7.29165 72.6272 7.46105 72.2197 7.76259 71.9192C8.06414 71.6187 8.47311 71.4499 8.89956 71.4499ZM8.89956 69.8638C8.26699 69.8635 7.64853 70.05 7.12233 70.3999C6.59613 70.7497 6.1858 71.2472 5.94318 71.8293C5.70057 72.4115 5.63657 73.0522 5.75927 73.6706C5.88196 74.289 6.18584 74.8573 6.63252 75.3036C7.07919 75.7499 7.64861 76.0543 8.26882 76.1783C8.88903 76.3023 9.5322 76.2403 10.1171 76.0001C10.7019 75.76 11.2022 75.3525 11.5548 74.8291C11.9073 74.3057 12.0962 73.6899 12.0977 73.0595C12.0977 72.2142 11.7608 71.4034 11.1611 70.8055C10.5613 70.2076 9.74788 69.8715 8.89956 69.8711V69.8638Z" fill="white"/>
<path d="M8.89954 65.1612C8.795 65.1614 8.69145 65.141 8.59482 65.1013C8.49818 65.0615 8.41035 65.0032 8.33636 64.9296C8.26238 64.856 8.20368 64.7686 8.16363 64.6724C8.12358 64.5762 8.10296 64.473 8.10296 64.3688V57.2923C8.09834 57.1853 8.1155 57.0784 8.15341 56.9782C8.19132 56.878 8.24919 56.7864 8.32355 56.7091C8.39791 56.6317 8.4872 56.5701 8.58607 56.5281C8.68493 56.486 8.79131 56.4644 8.8988 56.4644C9.0063 56.4644 9.11268 56.486 9.21154 56.5281C9.3104 56.5701 9.3997 56.6317 9.47406 56.7091C9.54842 56.7864 9.60629 56.878 9.6442 56.9782C9.68211 57.0784 9.69927 57.1853 9.69464 57.2923V64.3688C9.69464 64.579 9.61087 64.7805 9.46176 64.9291C9.31265 65.0777 9.11042 65.1612 8.89954 65.1612Z" fill="white"/>
<path d="M8.89954 89.6043C8.68828 89.6043 8.48566 89.5206 8.33628 89.3718C8.18689 89.2229 8.10296 89.021 8.10296 88.8105V81.7325C8.09834 81.6255 8.1155 81.5186 8.15341 81.4184C8.19132 81.3182 8.24919 81.2266 8.32355 81.1492C8.39791 81.0719 8.4872 81.0103 8.58607 80.9683C8.68493 80.9262 8.79131 80.9045 8.8988 80.9045C9.0063 80.9045 9.11268 80.9262 9.21154 80.9683C9.3104 81.0103 9.3997 81.0719 9.47406 81.1492C9.54842 81.2266 9.60629 81.3182 9.6442 81.4184C9.68211 81.5186 9.69927 81.6255 9.69464 81.7325V88.8075C9.69523 88.912 9.67509 89.0155 9.63539 89.1121C9.5957 89.2088 9.53722 89.2966 9.46333 89.3707C9.38944 89.4447 9.3016 89.5035 9.20484 89.5435C9.10808 89.5836 9.00433 89.6043 8.89954 89.6043V89.6043Z" fill="white"/>
<path d="M73.0845 108.995C67.9392 117.702 59.2845 123.426 49.4999 123.426C39.7153 123.426 31.0606 117.702 25.9153 108.995H24.514C25.6427 111.018 26.9742 112.923 28.488 114.679C34.1009 121.175 41.5622 124.753 49.4999 124.753C57.4377 124.753 64.8989 121.175 70.5119 114.679C72.0257 112.923 73.3571 111.018 74.4859 108.995H73.0845Z" fill="white"/>
<path d="M49.4999 23.5752C58.2549 23.5752 66.0982 28.1616 71.3424 35.3631H72.847C72.1263 34.3065 71.3467 33.2911 70.5118 32.3216C64.8989 25.8258 57.4377 22.2478 49.4999 22.2478C41.5622 22.2478 34.1009 25.8258 28.488 32.3216C27.6531 33.2911 26.8735 34.3065 26.1528 35.3631H27.6575C32.9016 28.1616 40.7449 23.5752 49.4999 23.5752Z" fill="white"/>
</svg>
